<svg width="34" height="30" viewBox="0 0 34 30" fill="none" xmlns="http://www.w3.org/2000/svg">
<path d="M32.9335 14.6962L27.2021 4.80281C27.0475 4.53578 26.7611 4.371 26.4515 4.371H21.6038L22.5427 1.80999C22.707 1.36237 22.4758 0.866272 22.0265 0.70295C21.5788 0.538841 21.0794 0.769651 20.9151 1.21766L12.5035 24.1577H7.52223L2.29116 15.1279L7.52223 6.0982H12.7548C13.2336 6.0982 13.6214 5.71138 13.6214 5.23463C13.6214 4.75782 13.2336 4.371 12.7548 4.371H7.02229C6.71273 4.371 6.42641 4.53578 6.27199 4.80281L0.540195 14.6962C0.3851 14.9635 0.3851 15.2924 0.540195 15.5598L6.27199 25.4531C6.42641 25.7202 6.71273 25.8849 7.02229 25.8849H11.8701L10.9312 28.4459C10.7668 28.8936 10.9981 29.3896 11.4473 29.553C11.893 29.7159 12.3934 29.4893 12.5587 29.0383L20.9703 6.0982H25.9516L31.1827 15.1279L25.9516 24.1577H20.7191C20.2403 24.1577 19.8524 24.5445 19.8524 25.0213C19.8524 25.4981 20.2403 25.8849 20.7191 25.8849H26.4515C26.7611 25.8849 27.0475 25.7202 27.2021 25.4531L32.9335 15.5598C33.0887 15.2924 33.0887 14.9635 32.9335 14.6962Z" fill="#8261F1"/>
</svg>
